# xmcd
#
# Track frame offsets:
#	150
#	15195
#	28235
#	42042
#	55542
#	78492
#	90800
#	106557
#	122837
#	140012
#	158465
#	174102
#
# Disc length: 2549 seconds
#
# Revision: 1
# Processed by: cddbd v1.4PL0 Copyright (c) Steve Scherf et al.
# Submitted via: audiograbber 1.81.01
#
DISCID=7609f30c
DTITLE=Chris Paulsen - Deamtown
DYEAR=1996
DGENRE=Country
TTITLE0=Back to you
TTITLE1=Learn to Give
TTITLE2=Barbed wired Love
TTITLE3=Chain of Doubt
TTITLE4=Dreamtown
TTITLE5=Watch you Step
TTITLE6=South France
TTITLE7=Waiting for you
TTITLE8=The fate that time has sealed
TTITLE9=Stop the rain
TTITLE10=Long time ago
TTITLE11=Drowning (Live)
EXTD=Chris Paulsen Bürgermeister Schöck-str. 12 55424 Münster Sarmsheim Phone &
EXTD=Fax 06721-47454
EXTT0=
EXTT1=
EXTT2=
EXTT3=
EXTT4=
EXTT5=
EXTT6=
EXTT7=
EXTT8=
EXTT9=
EXTT10=
EXTT11=
PLAYORDER=
